<?xml version="1.0" encoding="UTF-8"?><svg id="_이어_2" xmlns="http://www.w3.org/2000/svg" viewBox="0 0 117.05 85.26"><defs><style>.cls-1{fill:#7fa0b9;}.cls-2{fill:#dee1e3;}.cls-3{fill:#dee2e4;}.cls-4{fill:#211c17;}.cls-5{fill:none;stroke:#81725a;stroke-miterlimit:10;stroke-width:3.8px;}</style></defs><g id="_종결과물"><g id="Logo_Original"><polygon class="cls-2" points=".11 34.77 0 55.81 70.05 60.18 71.01 16.25 .11 34.77"/><polygon class="cls-1" points="7.66 59.82 7.52 76.16 81.64 85.14 81.64 65.46 70.05 64.33 7.66 59.82"/><polygon class="cls-4" points="92.23 48.75 71.01 16.25 .11 34.77 0 29.98 73.18 10.18 98.39 49.08 92.23 48.75"/><polygon class="cls-3" points="74.81 22.07 74.3 60.49 86.83 61.39 86.83 84.29 117.05 73.47 113.72 54.21 98.39 49.08 92.23 48.75 74.81 22.07"/><polygon class="cls-4" points="86.83 84.29 83.86 85.26 81.64 85.14 81.64 65.46 70.05 64.33 70.05 60.18 86.83 61.39 86.83 84.29"/><circle class="cls-5" cx="103.41" cy="11.31" r="9.41"/></g></g></svg>